<?xml version="1.0" standalone="no"?>
<svg xmlns:xlink="http://www.w3.org/1999/xlink" id="wave" style="transform:rotate(0deg); transition: 0.3s" viewBox="0 0 1440 310" version="1.1" xmlns="http://www.w3.org/2000/svg"><defs><linearGradient id="sw-gradient-0" x1="0" x2="0" y1="1" y2="0"><stop stop-color="rgba(179.626, 190.589, 255, 1)" offset="0%"/><stop stop-color="rgba(197.606, 199.243, 208.775, 1)" offset="100%"/></linearGradient></defs><path style="transform:translate(0, 0px); opacity:1" fill="url(#sw-gradient-0)" d="M0,217L26.7,217C53.3,217,107,217,160,227.3C213.3,238,267,258,320,258.3C373.3,258,427,238,480,211.8C533.3,186,587,155,640,149.8C693.3,145,747,165,800,149.8C853.3,134,907,83,960,72.3C1013.3,62,1067,93,1120,98.2C1173.3,103,1227,83,1280,103.3C1333.3,124,1387,186,1440,191.2C1493.3,196,1547,145,1600,129.2C1653.3,114,1707,134,1760,144.7C1813.3,155,1867,155,1920,160.2C1973.3,165,2027,176,2080,170.5C2133.3,165,2187,145,2240,149.8C2293.3,155,2347,186,2400,165.3C2453.3,145,2507,72,2560,41.3C2613.3,10,2667,21,2720,20.7C2773.3,21,2827,10,2880,51.7C2933.3,93,2987,186,3040,206.7C3093.3,227,3147,176,3200,129.2C3253.3,83,3307,41,3360,25.8C3413.3,10,3467,21,3520,25.8C3573.3,31,3627,31,3680,56.8C3733.3,83,3787,134,3813,160.2L3840,186L3840,310L3813.3,310C3786.7,310,3733,310,3680,310C3626.7,310,3573,310,3520,310C3466.7,310,3413,310,3360,310C3306.7,310,3253,310,3200,310C3146.7,310,3093,310,3040,310C2986.7,310,2933,310,2880,310C2826.7,310,2773,310,2720,310C2666.7,310,2613,310,2560,310C2506.7,310,2453,310,2400,310C2346.7,310,2293,310,2240,310C2186.7,310,2133,310,2080,310C2026.7,310,1973,310,1920,310C1866.7,310,1813,310,1760,310C1706.7,310,1653,310,1600,310C1546.7,310,1493,310,1440,310C1386.7,310,1333,310,1280,310C1226.7,310,1173,310,1120,310C1066.7,310,1013,310,960,310C906.7,310,853,310,800,310C746.7,310,693,310,640,310C586.7,310,533,310,480,310C426.7,310,373,310,320,310C266.7,310,213,310,160,310C106.7,310,53,310,27,310L0,310Z"/><defs><linearGradient id="sw-gradient-1" x1="0" x2="0" y1="1" y2="0"><stop stop-color="rgba(166, 174, 221, 1)" offset="0%"/><stop stop-color="rgba(160.835, 165.233, 190.845, 1)" offset="100%"/></linearGradient></defs><path style="transform:translate(0, 50px); opacity:0.9" fill="url(#sw-gradient-1)" d="M0,93L26.7,82.7C53.3,72,107,52,160,51.7C213.3,52,267,72,320,93C373.3,114,427,134,480,129.2C533.3,124,587,93,640,93C693.3,93,747,124,800,124C853.3,124,907,93,960,113.7C1013.3,134,1067,207,1120,242.8C1173.3,279,1227,279,1280,237.7C1333.3,196,1387,114,1440,87.8C1493.3,62,1547,93,1600,124C1653.3,155,1707,186,1760,211.8C1813.3,238,1867,258,1920,248C1973.3,238,2027,196,2080,149.8C2133.3,103,2187,52,2240,25.8C2293.3,0,2347,0,2400,10.3C2453.3,21,2507,41,2560,82.7C2613.3,124,2667,186,2720,206.7C2773.3,227,2827,207,2880,211.8C2933.3,217,2987,248,3040,222.2C3093.3,196,3147,114,3200,77.5C3253.3,41,3307,52,3360,67.2C3413.3,83,3467,103,3520,124C3573.3,145,3627,165,3680,170.5C3733.3,176,3787,165,3813,160.2L3840,155L3840,310L3813.3,310C3786.7,310,3733,310,3680,310C3626.7,310,3573,310,3520,310C3466.7,310,3413,310,3360,310C3306.7,310,3253,310,3200,310C3146.7,310,3093,310,3040,310C2986.7,310,2933,310,2880,310C2826.7,310,2773,310,2720,310C2666.7,310,2613,310,2560,310C2506.7,310,2453,310,2400,310C2346.7,310,2293,310,2240,310C2186.7,310,2133,310,2080,310C2026.7,310,1973,310,1920,310C1866.7,310,1813,310,1760,310C1706.7,310,1653,310,1600,310C1546.7,310,1493,310,1440,310C1386.7,310,1333,310,1280,310C1226.7,310,1173,310,1120,310C1066.7,310,1013,310,960,310C906.7,310,853,310,800,310C746.7,310,693,310,640,310C586.7,310,533,310,480,310C426.7,310,373,310,320,310C266.7,310,213,310,160,310C106.7,310,53,310,27,310L0,310Z"/><defs><linearGradient id="sw-gradient-2" x1="0" x2="0" y1="1" y2="0"><stop stop-color="rgba(166, 174, 221, 1)" offset="0%"/><stop stop-color="rgba(222.112, 223.077, 228.697, 1)" offset="100%"/></linearGradient></defs><path style="transform:translate(0, 100px); opacity:0.8" fill="url(#sw-gradient-2)" d="M0,0L26.7,5.2C53.3,10,107,21,160,62C213.3,103,267,176,320,170.5C373.3,165,427,83,480,41.3C533.3,0,587,0,640,36.2C693.3,72,747,145,800,165.3C853.3,186,907,155,960,149.8C1013.3,145,1067,165,1120,180.8C1173.3,196,1227,207,1280,191.2C1333.3,176,1387,134,1440,129.2C1493.3,124,1547,155,1600,186C1653.3,217,1707,248,1760,248C1813.3,248,1867,217,1920,180.8C1973.3,145,2027,103,2080,82.7C2133.3,62,2187,62,2240,67.2C2293.3,72,2347,83,2400,98.2C2453.3,114,2507,134,2560,139.5C2613.3,145,2667,134,2720,124C2773.3,114,2827,103,2880,108.5C2933.3,114,2987,134,3040,149.8C3093.3,165,3147,176,3200,160.2C3253.3,145,3307,103,3360,93C3413.3,83,3467,103,3520,118.8C3573.3,134,3627,145,3680,139.5C3733.3,134,3787,114,3813,103.3L3840,93L3840,310L3813.3,310C3786.7,310,3733,310,3680,310C3626.7,310,3573,310,3520,310C3466.7,310,3413,310,3360,310C3306.7,310,3253,310,3200,310C3146.7,310,3093,310,3040,310C2986.7,310,2933,310,2880,310C2826.7,310,2773,310,2720,310C2666.7,310,2613,310,2560,310C2506.7,310,2453,310,2400,310C2346.7,310,2293,310,2240,310C2186.7,310,2133,310,2080,310C2026.7,310,1973,310,1920,310C1866.7,310,1813,310,1760,310C1706.7,310,1653,310,1600,310C1546.7,310,1493,310,1440,310C1386.7,310,1333,310,1280,310C1226.7,310,1173,310,1120,310C1066.7,310,1013,310,960,310C906.7,310,853,310,800,310C746.7,310,693,310,640,310C586.7,310,533,310,480,310C426.7,310,373,310,320,310C266.7,310,213,310,160,310C106.7,310,53,310,27,310L0,310Z"/></svg>